<?xml version="1.0" encoding="UTF-8"?>
<svg version="1.1" viewBox="0 0 502 103" xmlns="http://www.w3.org/2000/svg">
 <g>
  <path d="m17.908 13.498c-2.4403 0-3.6602 0.99245-3.6602 2.9785v10.428h32.029v-10.428c0-1.9861-1.2198-2.9785-3.6602-2.9785h-24.709zm3.4062 4.6406a2.3806 2.3806 0 0 1 2.3809 2.3809 2.3806 2.3806 0 0 1-2.3809 2.3809 2.3806 2.3806 0 0 1-2.3809-2.3809 2.3806 2.3806 0 0 1 2.3809-2.3809z" fill="#a9c4fd" stroke-width=".82557"/>
  <path d="m50.486 13.498c-2.4403 0-3.6602 0.99245-3.6602 2.9785v10.428h32.029v-10.428c0-1.9861-1.2198-2.9785-3.6602-2.9785zm3.4062 4.6406a2.3806 2.3806 0 0 1 2.3809 2.3809 2.3806 2.3806 0 0 1-2.3809 2.3809 2.3806 2.3806 0 0 1-2.3809-2.3809 2.3806 2.3806 0 0 1 2.3809-2.3809z" fill="#a9c4fd" stroke-width=".82557"/>
  <!-- back tab A -->
  <!-- back tab B -->
  <!-- main blue (front tab + body) -->
  <path d="m84.914 9.873c-3.6605 0-5.4902 1.8317-5.4902 5.4922v10.98h-64.059c-3.6605 0-5.4922 1.8297-5.4922 5.4902v57.654c0 3.6605 1.8317 5.4902 5.4922 5.4902h33.859v-19.045h-18.303l37.062-36.777 37.063 36.777h-18.303v19.045h33.859c3.6605 0 5.4922-1.8297 5.4922-5.4902v-74.125c0-3.6605-1.8317-5.4922-5.4922-5.4922h-35.689z" fill="#0060fe" stroke-width=".91513"/>
  <!-- white house icon -->
  <!-- Demo text (vectorized) -->
 </g>
 <path d="m152.71 86.688q0.73401-7.607 1.0009-12.178 0.40037-6.8062 0.80074-17.616 0.30027-8.2743 0.30027-11.844v-3.9036q3.9036 0.10009 6.7395 0.10009 2.7358 0 7.1732-0.13346 4.4374-0.16682 8.341-0.16682 4.4708 0 7.8405 0.53382 3.3698 0.53382 6.2724 2.202 2.936 1.6682 4.9045 4.3707 1.9685 2.7025 3.0028 6.3392 1.0343 3.6033 1.0343 7.4402 0 3.7701-0.80074 7.2733-0.80073 3.4699-2.2354 6.2724t-3.3698 4.8378q-1.9018 2.0018-4.3707 3.4365-1.835 1.0676-3.7034 1.6682-1.8684 0.60055-5.1047 0.96756-3.6033 0.40037-8.1742 0.40037l-13.479-0.10009q-1.9018 0-6.1723 0.10009zm14.413-10.043q1.835 0.16682 3.8368 0.16682 3.4031 0 6.0722-0.60055 2.6691-0.60055 4.671-2.569 2.0352-1.9685 3.0028-5.038 0.96755-3.1028 0.96755-6.3392 0-3.9703-1.4346-6.6728-1.4346-2.7358-3.8368-3.8035-2.3688-1.0676-6.4726-1.0676-2.4022 0-5.6719 0.20018zm70.999-0.03336q-0.43373 2.0018-1.6682 9.6755-3.8702 0.76737-6.506 1.0009-2.6358 0.26691-5.3382 0.26691-3.9703 0-7.3067-0.56719-3.3364-0.53382-5.772-1.9351-2.4022-1.4013-4.037-3.4699-1.6348-2.1019-2.5023-4.9712-0.8341-2.8693-0.8341-5.9054 0-4.2706 1.7016-8.341 1.7016-4.1038 4.3707-6.4059 2.7025-2.3021 6.2057-3.2697 3.5032-0.96756 7.1732-0.96756 3.8035 0 7.24 0.90083 3.4698 0.86746 5.8721 3.0695 2.4022 2.202 3.4031 4.9712 1.0343 2.7692 1.0343 5.9721 0 1.9017-0.43373 4.2372l-23.388 0.03336q-0.0334 0.53382-0.0334 0.96756 0 3.6033 2.569 5.3049 2.569 1.7016 6.2724 1.7016 2.202 0 5.0046-0.50046 2.8359-0.53382 6.9731-1.7683zm-20.519-10.81h11.01q0.0334-0.56719 0.0334-0.96756 0-1.7349-0.63392-2.9694-0.60055-1.2345-1.7683-1.8017-1.1344-0.56719-2.569-0.56719-1.0009 0-1.9351 0.33364-0.93419 0.30028-1.7016 0.93419-0.734 0.60055-1.2345 1.4013t-0.73401 1.5681q-0.23355 0.73401-0.4671 2.0686zm28.026 20.886 0.93419-16.081 0.53382-12.578 0.0667-5.405q3.67 0.06673 6.4726 0.06673 3.1696 0 6.1723-0.06673l-0.23355 4.4374q1.0343-1.3346 1.7349-2.0352 0.73401-0.73401 1.7683-1.3679 1.0343-0.66728 2.1353-1.0343 1.101-0.40037 2.4689-0.63392 1.3679-0.23355 2.8693-0.23355 1.7016 0 3.1362 0.30028 1.4346 0.26691 2.4689 0.70064 1.0343 0.43373 1.8017 1.0009t1.3346 1.3012q0.60055 0.70064 1.3679 2.0686 1.468-2.1353 3.1028-3.2363 1.6348-1.101 3.7034-1.6015 2.1019-0.53382 4.304-0.53382 2.9027 0 5.4717 0.8341 2.569 0.8341 4.2039 2.9027 1.6682 2.0352 1.6682 5.3049 0 1.5347-0.23355 4.6376-0.20018 3.1028-0.60055 10.676-0.36701 7.5403-0.40037 10.576-3.0695-0.06673-5.9388-0.06673-3.5032 0-7.3401 0.06673 0.33364-4.2372 0.66728-10.61 0.367-6.4059 0.367-8.8748 0-2.1353-0.50045-3.1696-0.50046-1.0676-1.3012-1.4346-0.76737-0.40037-1.7016-0.40037-1.0009 0-1.7349 0.367-0.80073 0.40037-1.4013 1.2345-0.80074 1.101-1.3012 2.7692-0.40037 1.3012-0.63391 3.9703-0.23355 2.7358-0.36701 7.2066l-0.26691 8.9415q-3.5699-0.06673-6.4392-0.06673-2.936 0-6.9064 0.06673 0.30028-2.9694 0.70065-9.9758 0.40037-7.0064 0.40037-9.3753 0-2.0018-0.40037-3.0028t-1.1344-1.6015q-0.70064-0.60055-1.9017-0.60055-1.3012 0-2.2688 0.76737-0.96756 0.76737-1.6682 2.202-0.66728 1.4346-0.96756 3.9703-0.26691 2.5023-0.50045 7.6737-0.23355 5.1714-0.30028 9.9425-4.037-0.06673-6.5393-0.06673-2.7692 0-6.873 0.06673zm83.443-34.932q4.1371 0 7.9406 1.2678 3.8369 1.2678 6.4726 3.67 2.6358 2.3688 3.8702 5.5718 1.2678 3.1696 1.2678 6.8396 0 3.5699-1.1344 6.8062-1.101 3.2029-3.7701 6.0389-2.6691 2.8026-6.8062 4.2039-4.1038 1.4013-8.708 1.4013-4.2372 0-8.1408-1.2345-3.9036-1.2345-6.5393-3.6033-2.6024-2.3688-3.937-5.6719-1.3012-3.303-1.3012-6.9397t1.2678-6.9397q1.3012-3.303 4.0704-5.9388 2.8026-2.6358 6.9063-4.037 4.1038-1.4347 8.5412-1.4347zm-0.23355 9.809q-2.1353 0-3.8035 1.101-1.6682 1.101-2.5357 3.2363-0.83409 2.1019-0.83409 4.6042 0 3.67 1.835 5.6385 1.835 1.9351 4.6042 1.9351 2.1019 0 3.7701-1.101 1.6682-1.1344 2.5023-3.303 0.86746-2.202 0.86746-4.7043 0-2.0686-0.66728-3.7368t-2.202-2.6691q-1.5014-1.0009-3.5366-1.0009z" stroke-width=".91513" aria-label="Demo"/>
 <path d="m363.86 86.688q1.6682-16.215 2.0018-35.699l-14.213 0.367 0.16682-3.7034q0.13346-2.9694 0.20018-6.506 9.4754 0.06673 22.087 0.06673l8.2409-0.03336h8.0074l4.3373-0.03336-0.20018 3.2363q-0.13346 2.6024-0.20018 4.304-0.0334 1.7016-0.0334 2.569-7.1399-0.33364-11.777-0.33364h-2.3355q-0.50046 5.9054-0.76738 10.91-0.367 7.1733-0.56718 13.946-0.20019 6.7395-0.20019 10.91-5.4717-0.06673-7.0732-0.06673-1.4346 0-7.6737 0.06673zm35.966-24.356q0.63391-3.303 0.80073-4.5375 0.16682-1.2678 0.53382-3.9369 9.6088-2.1019 16.515-2.1019 3.9369 0 7.2066 0.90083 3.2697 0.86746 5.1047 2.8359t1.835 5.6385q0 1.8684-0.50046 8.4077t-0.76737 17.149q-3.2697-0.06673-6.506-0.06673-3.1362 0-6.6728 0.06673 0.4671-3.67 1.0343-15.147-1.2678 0.60055-2.0018 0.86746-0.70065 0.26691-2.5023 0.80074-1.8017 0.53382-2.8359 0.90083-1.0009 0.367-1.7683 0.93419-0.73401 0.56719-1.0676 1.1677-0.30027 0.60055-0.30027 1.3346 0 1.1344 0.90083 1.9351 0.90082 0.80074 2.8693 0.80074 0.70064 0 1.5014-0.10009 0.80074-0.13346 2.202-0.60055-0.96756 2.569-2.3021 7.5069-2.8693 0.4671-5.4383 0.4671-4.1371 0-6.9063-1.1344-2.7358-1.1677-4.2372-3.7368-1.468-2.569-1.468-5.138 0-1.5681 0.53382-3.0695 0.56719-1.5014 1.7349-2.936 1.1677-1.4346 2.7358-2.4356 1.5681-1.0343 4.2706-1.9351 2.7358-0.90083 6.9063-1.7016 1.7349-0.33364 3.1696-0.70064 1.468-0.40037 2.0686-0.66728 0.63392-0.30028 1.0009-0.66728 0.40037-0.40037 0.56719-0.80074 0.16682-0.43373 0.16682-0.90083 0-1.2678-1.0676-1.9351-1.0676-0.70064-3.1362-0.70064-5.7386 0-14.18 3.2363zm38.102 24.356q0.93419-10.51 1.6348-24.489 0.70064-13.98 0.70064-21.053 3.8702 0.06673 7.24 0.06673 3.303 0 6.4726-0.06673-0.73401 5.2048-1.0676 11.444 3.0361-0.50046 4.671-0.66728 1.6348-0.16682 3.2363-0.16682 5.138 0 8.7747 1.6348 3.67 1.6015 5.9388 5.4383 2.3021 3.8369 2.3021 9.3753t-2.1686 10.209q-2.1687 4.6376-5.8053 6.9063-3.6367 2.2354-8.4744 2.2354-1.8017 0-3.4365-0.367-1.6348-0.367-2.9694-1.0676-1.3346-0.73401-2.2354-1.5347t-2.0686-2.1687l-0.13346 4.2706q-3.5699-0.06673-5.9722-0.06673-1.9685 0-6.6394 0.06673zm14.046-24.723q-0.26691 5.5384-0.26691 6.7729 0 3.1362 0.53382 4.9712 0.56719 1.835 2.1019 2.936 1.5681 1.101 3.5032 1.101 2.0018 0 3.5032-1.101 1.5014-1.101 2.2688-3.2029 0.80074-2.1353 0.80074-4.4708 0-3.5032-1.9018-5.6051-1.8684-2.1353-5.405-2.1353-2.202 0-5.138 0.73401z" fill="#0060fe" stroke-width=".91513" aria-label="Tab"/>
 <path d="m477.06 40.789 0.12838-1.7039 0.12838-2.5384 0.0817-2.4976h-0.40848l-0.3793 0.0058-0.3618 0.0058-1.348 0.04085q0.0467-0.8403 0.0525-1.278 1.6806 0.01167 3.5188 0.01167l2.0949-0.0058 1.1204-0.0058q-0.0584 0.82279-0.0584 1.2663-1.0562-0.05252-2.0249-0.05252h-0.44933l-0.07 1.0679-0.16923 4.1081-0.0117 0.68858q-6e-3 0.42598-6e-3 0.88698l-0.88698-0.01167q-0.14588 0-0.95117 0.01167zm5.0418 0 0.15172-1.3188 0.38514-4.6333 0.13421-2.0132q0.83446 0.01167 1.2196 0.01167 0.30928 0 1.1262-0.01167 0.0934 0.47267 0.14005 0.67107 0.0467 0.1984 0.1809 0.63606 0.13421 0.43766 0.34429 1.062 0.30927 0.94533 0.55436 1.8673l0.44349 1.6689 0.78194-2.1416 1.1379-2.7835q0.0584-0.14005 0.11671-0.32095 0.0642-0.18673 0.21007-0.6594 0.69441 0.01167 1.2371 0.01167 0.3618 0 1.1554-0.01167-0.0817 1.6806-0.12254 3.7172-0.0408 2.0307-0.0408 3.0344 0 0.48434 0.0117 1.2138-0.5777-0.01167-0.78778-0.01167-0.30344 0-0.80528 0.01167 0.035-0.59521 0.0467-0.98035l0.0992-3.4721q0.0175-0.73526 0.0175-1.4472l-6e-3 -0.47267-2.1533 5.6778-0.25092 0.69441q-0.56603-0.01167-0.77611-0.01167-0.26259 0-0.82279 0.01167l-1.0037-3.5946q-0.0525-0.19257-0.24509-0.80528l-0.36179-1.1904q-0.0525-0.16923-0.0817-0.27426-0.0233-0.11087-0.11087-0.48434l-0.0759 0.74693q-0.0292 0.35596-0.0875 1.1904l-0.22758 3.6179q-0.0117 0.26843-0.0175 0.79362l-0.75276-0.01167q-0.19257 0-0.76444 0.01167z" stroke-width="1.1204" aria-label="TM"/>
</svg>
